# xmcd CD database file
# Generated: Fre Okt 24 10:20:21 2003 by KSCD
# 
# Track frame offsets:
#       150
#       20725
#       33290
#       47630
#       62593
#       77430
#       88005
#       102288
#       112688
#       126810
#       141775
#       156903
#       172308
#       189518
#       207368
#       227293
#       244865
#       259955
#
# Disc length: 3653 seconds
#
# Revision: 1
# Processed by: cddbd v1.4PL0 Copyright (c) Steve Scherf et al.
# Submitted via: Kscd 1.3.3
#
DISCID=ed0e4312
DTITLE=Ceili Dance Bands - Six of the best
DYEAR=1900
DGENRE=
TTITLE0=Biddy the bold wife
TTITLE1=
TTITLE2=
TTITLE3=
TTITLE4=
TTITLE5=
TTITLE6=
TTITLE7=
TTITLE8=
TTITLE9=
TTITLE10=
TTITLE11=
TTITLE12=
TTITLE13=
TTITLE14=
TTITLE15=
TTITLE16=
TTITLE17=
EXTD=
EXTT0=
EXTT1=
EXTT2=
EXTT3=
EXTT4=
EXTT5=
EXTT6=
EXTT7=
EXTT8=
EXTT9=
EXTT10=
EXTT11=
EXTT12=
EXTT13=
EXTT14=
EXTT15=
EXTT16=
EXTT17=
PLAYORDER=
